<svg id="Layer_1" data-name="Layer 1" xmlns="http://www.w3.org/2000/svg" viewBox="0 0 89.11 36.01"><defs><style>.cls-1{fill:#fff;}</style></defs><path class="cls-1" d="M22.05,21.93l-.43,1.49h-4L11.6,45.6l-2.21.65L9.28,46l5.59-22.61H11.6l.4-1.49h3.19c1.16-4,2.11-7,5.45-9.94a6.49,6.49,0,0,1,3.88-1.75c.73,0,1.49.29,1.49,1.17,0,.5-.36,1.74-1,1.74s-1.45-.73-2.28-.73c-2.22,0-2.87,2.47-3.38,4.54l-1.27,5Z" transform="translate(-9.28 -10.24)"/><path class="cls-1" d="M26,26.25c.91-1.34,3.7-4.86,5.48-4.86.91,0,1.49.4,1.49,1.38a9,9,0,0,1-.36,1.88l-1.38,5h.07c1-1.85,4.39-8.24,6.68-8.24.76,0,1.12.43,1.12,1.23s-.4,2.69-1.52,2.69c-.44,0-.91-.15-1.34-.15-2.51,0-5.09,7-6.28,10.75l-.66,2.32c-.07.25-.65.29-1.3.29-.48,0-1.17-.33-1.17-.65a1,1,0,0,1,.08-.33l2.86-10a8.87,8.87,0,0,0,.44-2.14c0-.4-.22-.94-.69-.94-1,0-2.47,1.7-3.05,2.43Z" transform="translate(-9.28 -10.24)"/><path class="cls-1" d="M56.75,33.8c-2.39,2.65-5,4.72-8.24,4.72s-4.46-2.47-4.46-4.9c0-5.81,5.19-12.23,10.45-12.23,1.64,0,3.56.58,3.56,2.58,0,4.93-6.93,6.64-10.82,7a12.62,12.62,0,0,0-.29,2.8,2.7,2.7,0,0,0,3,2.79c2.11,0,4.25-1.38,6.32-3.38Zm-1.59-9.69a1.42,1.42,0,0,0-1.49-1.56c-2.8,0-5.66,5.08-6.24,7.48C50.76,29.81,55.16,28.07,55.16,24.11Z" transform="translate(-9.28 -10.24)"/><path class="cls-1" d="M64.3,33.44c.37,2.07,2.73,2.9,4.61,2.9,1,0,3.23-.25,3.23-1.63,0-2.51-5.3-4.07-6.35-6.43a3.83,3.83,0,0,1-.32-1.67c0-1.88,2.54-3.52,4-4.42a4.19,4.19,0,0,1,2.69-.8c1.49,0,3.16.4,3.16,2.18,0,.43-.33,1.63-.77,1.63h-.43c-.29,0-.36-.26-.51-.55-.33-.68-1.78-1.3-3-1.3s-2.72.65-2.72,2.07c0,3,6.43,3.77,6.43,7.55,0,1.41-1.42,3-2.36,3.88a5.79,5.79,0,0,1-4.32,1.67C65.87,38.52,63,38,63,35.69a4.68,4.68,0,0,1,.83-2.25Z" transform="translate(-9.28 -10.24)"/><path class="cls-1" d="M85.83,29.52h.07c1.56-2.47,6.5-8.13,9.88-8.13,1.92,0,2.61,1.38,2.61,3.16C98.39,28.21,94,38,90.22,38c-.69,0-.87-.37-.87-.8a2.78,2.78,0,0,1,.18-.73l.76-1.78H92.8c1.12-2.25,2.68-6.46,2.68-9,0-1.24-.36-2.14-1.45-2.14-2.5,0-6.79,5.55-7.84,7.55A22.08,22.08,0,0,0,84,37.32c-.07.33-.32.58-1.56.58-.47,0-1.16-.18-1.16-.61a6.27,6.27,0,0,1,.22-1.13l5.73-23.48-1.77-1,.1-.47c.58-.07,1.49-.18,2.4-.33a20.14,20.14,0,0,0,2.58-.62l.4.15Z" transform="translate(-9.28 -10.24)"/></svg>